<svg width="138" height="56" viewBox="0 0 138 56" fill="none" xmlns="http://www.w3.org/2000/svg">
<path d="M35.6188 30.2688C36.3054 30.1617 38.6057 29.6325 39.1173 29.9933C39.5087 30.2688 39.2048 31.9438 39.3491 32.3833C39.4125 32.5757 39.7646 32.6369 39.9329 32.7834C41.4679 34.1172 41.4461 35.7812 39.2157 36.1267L39.1654 41.3024C38.9293 41.825 36.0933 42.8811 35.4001 42.7237C35.258 44.4751 35.5925 46.524 35.4001 48.2404C35.352 48.6734 35.2121 49.0823 34.8229 49.3009C34.2216 49.6377 30.3229 50.403 30.2704 50.6457C30.395 50.884 31.1385 51.7215 31.309 51.7893C31.5058 51.868 31.6895 51.0852 31.965 51.0283C33.0583 50.1078 34.4009 50.6216 34.1909 52.1632C34.0444 53.2324 32.1902 55.3228 31.0729 55.3578C30.4322 55.3775 29.7041 54.7062 29.2361 54.2995C28.0794 53.2958 27.2135 51.9095 25.9672 51.0349L24.0626 51.3694C24.1938 52.7448 23.422 53.9453 22.4118 54.7958C21.489 55.5721 20.8396 55.9525 19.7879 55.1238C18.653 54.2295 16.7966 51.6974 15.6705 51.1595C15.008 50.8425 12.782 50.6982 11.7959 50.4489C10.9846 50.2434 8.06117 49.419 7.75286 48.704C7.55388 46.3206 7.74411 43.8847 7.65665 41.4817C7.60417 41.3221 6.18288 40.9219 5.85052 40.7754C1.1253 38.696 -1.61232 32.1646 1.03127 27.505C2.35416 25.1741 4.44017 24.2863 7.06845 24.3716C7.27837 24.3782 7.59105 24.5903 7.7288 24.376C7.83376 24.2142 7.79221 22.1828 7.78347 21.8002C7.7463 20.298 7.5014 18.4284 7.9409 16.9416C8.63187 14.6106 12.7711 13.6442 14.8768 13.3381C14.2492 11.8293 15.583 11.4663 16.5102 10.6507C16.5473 10.4758 15.9351 10.021 15.8126 9.83513C15.3032 9.06982 15.5502 8.35262 15.3491 7.56763C15.2069 7.01224 13.9037 5.71996 14.4876 5.24547C15.0102 4.81909 15.0692 5.74839 15.2201 6.06107C15.4081 6.45247 15.7908 6.88323 15.9176 7.21997C16.1647 7.8825 15.9548 8.67405 16.1822 9.24912C16.4096 9.8242 17.5553 10.2637 17.0699 11.1034C16.6392 11.8468 15.0102 12.0392 15.5524 13.1019L20.2317 12.8985C20.1749 12.013 19.5933 11.0356 20.0765 10.1762C20.2011 9.95321 20.551 9.78702 20.6253 9.5137C20.715 9.1879 20.4613 8.7965 20.54 8.35481C20.6516 7.72507 21.3075 6.85262 21.3316 6.28848C21.3666 5.52536 20.6035 5.22798 20.4766 4.73381C20.2383 3.81326 20.9511 2.71559 21.2419 1.83876C21.3622 1.47579 21.5787 0.089489 21.8236 0.0173315C21.9876 -0.0307736 22.1253 0.0195181 22.1778 0.190072C22.5998 1.54357 21.0911 3.14197 21.0998 4.32492C21.1042 5.02681 22.0794 5.32856 21.9788 6.50714C21.9198 7.19591 21.3075 7.85626 21.2201 8.48163C21.1567 8.943 21.4016 9.3672 21.2988 9.75641C21.207 10.1085 20.6253 10.5436 20.5619 10.994C20.4744 11.6041 20.8965 12.2776 20.8921 12.892L26.5488 12.9926C26.9577 12.1792 25.6217 11.9364 25.4118 11.2652C25.3593 11.0946 25.1516 9.5793 25.1428 9.34096C25.1035 8.29358 26.4832 7.61793 26.4176 7.04941C26.3892 6.80014 25.0925 6.01078 24.9504 5.27827C24.8586 4.81034 25.0269 4.23089 25.5801 4.26807C25.766 4.63323 25.602 5.14052 25.7463 5.46632C25.8775 5.75932 26.5401 6.08731 26.7806 6.39781C27.8629 7.78848 25.7747 8.44227 25.8054 9.44373C25.8119 9.66895 25.9715 9.91385 25.9934 10.1391C26.0196 10.4036 25.871 10.5436 25.9803 10.9109C26.1924 11.6325 27.8258 12.0239 27.2201 13.2243C29.586 13.3949 31.7507 13.4124 33.8826 14.5888C34.3724 14.8577 35.6275 15.7411 35.6275 16.3381V30.2666L35.6188 30.2688ZM20.3126 13.6879L15.9679 13.8847L16.2959 15.6318L21.4016 15.8789C22.2675 15.2863 21.1742 14.8315 20.7172 14.322C20.5882 14.1777 20.3454 13.7076 20.3148 13.6879H20.3126ZM26.0109 15.7411C25.7769 15.2666 26.739 14.4904 26.7478 14.3767C26.7981 13.7666 25.1756 13.6857 24.7602 13.6595C23.5313 13.5873 22.2259 13.7229 20.9883 13.666C21.5065 14.3461 22.5386 14.7112 22.4074 15.7411C23.6406 15.5137 24.8105 15.1507 26.0087 15.7411H26.0109ZM15.3075 13.9918C13.532 14.2848 11.586 14.7047 10.0357 15.6515C9.05825 16.2484 7.75942 17.6413 8.79586 18.7608C10.7397 20.8534 19.3462 20.5472 22.1319 20.3264C25.2325 20.0815 32.094 19.2593 34.5627 17.4707C35.8156 16.5633 33.9941 15.3475 33.1785 14.9561C31.4315 14.1187 29.2252 14.0749 27.3185 13.9918C27.3469 14.2302 27.4825 14.4182 27.4103 14.6762C27.371 14.8096 26.3017 15.8745 26.8243 15.9423C27.946 15.8526 29.3083 15.5968 30.4213 15.7499C30.7077 15.7892 32.0874 16.4736 32.2208 16.6792C32.6144 17.287 32.1443 17.4095 31.9038 17.7615C31.7791 17.943 31.7529 18.1245 31.5823 18.3147C30.3731 19.666 25.1734 19.1631 23.328 19.2309C22.4927 19.2615 21.5524 19.5458 20.7062 19.4583C20.2558 19.4124 19.9519 19.1216 19.6326 19.1303C19.0072 19.1478 17.9839 19.6048 17.2164 19.6682C16.3155 19.7426 14.3695 19.6486 13.6326 19.1063C13.18 18.7739 13.3965 18.4131 13.344 18.3585C13.239 18.2469 10.6085 18.916 10.5014 17.8643C10.4424 17.287 12.0648 16.209 12.5809 16.0144C13.5058 15.6646 14.6603 15.6252 15.6377 15.6318C15.6902 15.0589 15.4475 14.5297 15.3075 13.9918ZM23.9905 16.3949C24.5175 16.3949 25.0466 16.3949 25.5736 16.3949C25.5823 16.2331 25.1822 16.2025 25.0685 16.1894C24.4934 16.1281 23.9511 16.2025 23.3892 16.2856C23.4373 16.5786 23.8965 16.3927 23.9883 16.3927L23.9905 16.3949ZM16.836 16.6201C16.6742 16.3709 14.9664 16.4058 14.6559 16.6682C14.8768 16.8257 15.2069 17.1383 15.4781 17.1558C15.5721 17.1624 16.7922 16.9918 16.8381 16.9394C16.8491 16.9284 16.8491 16.642 16.8338 16.6179L16.836 16.6201ZM19.0226 16.5064L17.3848 16.3971L17.8812 16.7185L19.0204 16.5064H19.0226ZM13.0182 17.7069C13.0313 16.8803 12.5502 17.5932 12.3075 17.5691C12.1282 17.5516 11.9402 16.9437 11.4897 17.7069H13.0182ZM20.3892 18.1442C21.1261 18.1004 21.9351 18.1442 22.6829 18.1442C22.7266 18.1442 22.8731 18.4263 22.8447 18.0917C22.1078 16.8956 20.9314 17.9889 19.8994 18.1464C19.9212 18.4328 20.3148 18.1486 20.3892 18.1464V18.1442ZM34.965 18.1442C34.051 18.5159 33.1982 18.9926 32.258 19.314C27.371 20.9889 14.9905 22.0954 10.2325 20.3308L8.43289 19.3993L8.42851 48.3519C8.70621 48.8417 10.6457 49.4015 11.2492 49.5721C12.0604 49.8017 12.9088 50.0072 13.7419 50.1362C14.317 50.2259 15.2332 50.1581 15.7536 50.309C16.379 50.4904 18.0648 52.6158 18.3119 52.5524C18.5 52.2856 19.2784 51.3694 19.2259 51.0939C19.1822 50.8622 17.844 49.8148 17.6209 49.4234C17.4876 49.1872 17.481 48.9314 17.7915 48.8505C18.2791 48.7259 19.344 50.5582 20.0677 50.6916C20.8724 50.8403 23.5182 50.7659 24.4278 50.696C24.8061 50.6675 26.1421 50.2761 26.2317 50.3002C26.6887 50.4205 28.18 52.3884 28.4555 52.3294C28.6829 52.1304 29.422 51.1027 29.3783 50.8753C29.3236 50.5932 27.8389 49.524 27.7055 49.0582C27.664 48.9095 27.8629 48.6187 27.9745 48.5575C28.3812 48.3388 29.0284 49.8826 29.6734 49.9263C30.0605 49.9525 32.4504 49.2725 32.9992 49.1107C33.2529 49.0364 34.637 48.6471 34.637 48.4547V42.8286C33.8914 42.8111 33.1414 42.8505 32.3936 42.833C29.0481 42.7565 25.7463 43.1828 22.3855 42.4678C21.8476 42.3541 19.8972 41.8337 19.8972 41.134V37.0385C18.8476 37.1151 17.7412 37.1522 16.6895 37.0254C16.0881 36.9532 14.9992 36.8876 15.2004 36.0567C16.0291 36.1114 16.93 36.3651 17.7609 36.3891C18.5043 36.411 19.2587 36.2032 19.9497 36.2754C20.5728 36.341 21.1567 36.7739 21.8586 36.6012C21.8848 36.5793 21.6071 36.271 21.9045 36.0458L22.8403 35.8381C22.2893 35.919 21.0058 35.8271 21.7798 35.1581L22.6217 34.8541L22.0335 34.8651C20.0809 35.4183 18.0561 34.7513 16.0816 34.6245C16.0466 34.3293 15.9941 34.0473 16.3418 33.9795C17.2492 33.8067 18.7908 34.4518 19.7813 34.3075V31.3031C19.7813 31.021 21.0605 30.951 21.3666 30.9226C23.5619 30.7062 25.7288 30.8964 27.8367 31.548C28.8054 31.8476 29.7128 32.2805 30.6465 32.661L34.9606 30.4853V18.142L34.965 18.1442ZM29.9424 18.2535L27.9242 18.3628L26.7784 18.5793L29.0153 18.47L29.9424 18.2535ZM17.7128 18.798H14.9839L16.5692 19.0254L17.7128 18.798ZM7.77691 40.6464C7.72662 40.349 7.87749 39.6646 7.72662 39.4416C7.66102 39.341 7.06189 39.1945 6.8651 39.1027C4.10125 37.8235 2.17923 35.1646 1.99119 32.0706C1.82282 29.2717 3.4737 26.5319 6.42559 26.2411C6.68143 26.2149 7.68726 26.3024 7.72662 26.2346C8.19673 24.8417 6.71641 25.0538 5.7718 25.15C3.43215 25.3884 1.66101 27.1486 1.01597 29.3483C-0.403133 34.1916 2.80897 39.6843 7.7791 40.6464H7.77691ZM7.77691 38.6785V27.1551C7.77691 27.1442 7.62385 26.9911 7.61291 26.9911H5.97516C5.85927 26.9911 4.51889 27.822 4.33959 27.9773C0.882584 30.962 3.3097 38.029 7.77691 38.6807V38.6785ZM38.6778 30.7062H36.9854C36.6837 30.7062 35.492 31.1172 35.1268 31.2506C33.7143 31.7601 32.3433 32.6478 31.0357 33.3825V41.9584C33.5 42.1355 36.2813 42.3782 38.4373 40.9525C38.6035 39.3804 38.5772 37.8038 38.5707 36.2229C38.4526 35.8796 37.3856 35.2127 37.3746 34.9175C37.3681 34.7513 37.5233 34.5764 37.5299 34.4365C37.543 34.1675 37.414 33.9161 37.4993 33.6231C37.5933 33.306 38.164 33.0786 38.2908 32.884C38.3149 32.849 38.645 32.1974 38.6581 32.158C38.774 31.7666 38.621 31.1347 38.68 30.7062H38.6778ZM20.551 37.2594V41.0291C21.6312 41.6304 23.0787 41.9277 24.3185 42.0655C26.2624 42.282 28.3309 42.2885 30.2748 42.1289C30.3863 42.0502 30.3688 41.9168 30.3819 41.7987C30.6815 39.3213 30.1414 36.247 30.3819 33.704C30.3775 33.2951 29.9905 33.1355 29.6866 32.9802C26.9971 31.5939 23.3892 31.3424 20.4395 31.7994V34.3118C21.2944 34.5502 22.6654 33.6537 23.3411 34.4124C23.516 34.6092 23.5051 34.8607 23.6144 35.0137C23.8112 35.2871 24.1173 35.0662 24.161 35.5648C24.2288 36.3519 23.7259 36.1376 23.6253 36.2973C23.5663 36.3913 23.621 36.7018 23.5269 36.9073C23.2055 37.6202 21.2091 37.3097 20.5488 37.2616L20.551 37.2594ZM39.3338 35.2936C39.3863 35.3461 40.0554 35.0728 40.1581 34.9722C40.7092 34.4321 39.7689 33.0808 39.0605 33.2142C39.0495 33.7805 38.3477 33.4132 38.1312 33.9817C39.6574 33.8439 38.8484 34.6814 38.8943 34.7448C38.9052 34.7601 39.1239 34.7667 39.231 34.9022C39.3382 35.0378 39.3185 35.2783 39.3316 35.2936H39.3338ZM29.9446 51.5706C29.8527 51.997 29.0043 52.7033 29.1115 53.1012C29.1662 53.3046 30.6312 54.6056 30.8761 54.6275C31.7966 54.7149 33.4803 52.5546 33.4453 51.6209C33.4169 50.8731 32.6188 51.3957 32.3433 51.7302C32.1334 51.9839 31.8797 52.8957 31.5452 52.8629C31.1406 52.8257 30.1785 51.4066 29.9446 51.5684V51.5706ZM21.5349 51.352L20.5532 51.4044L21.1523 52.0036C21.2726 51.9314 21.6355 51.4438 21.5349 51.3498V51.352ZM22.9191 51.4788C22.0269 51.5597 21.8301 53.11 21.371 53.1034C20.9424 53.0969 20.1268 51.7193 19.8469 51.7893C19.6545 52.0932 18.8717 52.9329 18.9307 53.2368C19.0007 53.5932 20.2842 54.7368 20.6363 54.8264C21.5393 55.056 23.3126 52.7973 23.2908 51.9489C23.2842 51.7477 23.1661 51.4569 22.9212 51.4788H22.9191Z" fill="#FFFCF8"/>
<path d="M36.2916 27.9578C36.1801 27.8856 36.1779 27.5248 36.2632 27.3958C36.3703 27.2318 36.9016 27.1466 37.1487 26.8317C37.3586 26.5605 37.4549 25.7253 37.6385 25.6815C38.0059 25.5963 38.1436 26.5715 38.3973 26.777C38.664 26.9935 39.4534 26.9826 39.5409 27.2756C39.624 27.6976 39.1363 27.6692 38.9024 27.82C38.3514 28.1786 38.4957 28.4957 38.2923 28.9571C37.8856 29.8754 37.5839 28.4629 37.2034 28.1896C36.871 27.9512 36.4162 28.0365 36.2916 27.9556V27.9578ZM37.3739 27.6342C37.3936 27.6626 37.8637 27.9184 37.9621 27.9753C37.9971 27.9665 38.3273 27.5117 38.3273 27.4811C38.3273 27.4374 37.9184 27.0219 37.8594 27.0175C37.6604 27.0022 37.2734 27.4877 37.3761 27.6342H37.3739Z" fill="#FFFCF8"/>
<path d="M33.5376 27.9643C33.5092 28.0037 33.2053 28.0605 33.1112 28.0846C33.1484 28.277 33.4283 28.2661 33.5551 28.4563C33.8262 28.8652 33.6032 29.3135 33.2774 29.6152C32.8248 30.035 30.3802 30.5467 30.3146 29.6677C30.2818 29.2304 30.7628 29.4447 30.8175 29.3922C30.8481 29.3638 30.7891 28.8215 30.9006 28.546C31.0274 28.2311 31.3292 28.2049 31.4713 27.9731C30.8787 27.7741 30.0194 29.1101 29.6433 28.7122C28.8692 27.89 31.292 27.1225 31.8714 27.1072C32.241 27.0985 33.9902 27.3062 33.5354 27.9622L33.5376 27.9643Z" fill="#FFFCF8"/>
<path d="M27.7583 28.4104L27.2116 28.5176C28.259 28.78 28.1081 29.8252 27.2422 30.2428C26.7393 30.4855 24.3428 30.8922 24.5921 29.8317C25.458 29.8733 24.8086 29.3048 25.2459 28.7909L26.0112 28.3033C25.6548 28.2792 25.3333 28.417 25.025 28.5722C24.6949 28.7362 23.9405 29.648 23.8224 28.9002C23.7109 28.2027 25.1825 27.6189 25.751 27.5511C26.4004 27.4724 27.9922 27.4396 27.7583 28.4126V28.4104Z" fill="#FFFCF8"/>
<path d="M33.3136 26.7593C33.2392 26.8075 31.9032 26.6478 31.5402 26.6784C30.9652 26.7265 29.229 27.3672 29.03 27.3279C28.8726 27.2972 28.7436 26.7659 29.0256 26.5647C29.6401 26.1274 32.756 25.6245 33.331 26.1712C33.4775 26.3111 33.4119 26.6959 33.3114 26.7593H33.3136Z" fill="#FFFCF8"/>
<path d="M27.6465 27.1005C27.5722 27.1771 25.8841 27.0787 25.5299 27.1137C25.051 27.1618 23.4089 27.774 23.1859 27.6319C23.024 27.5291 23.0896 27.247 23.2143 27.0962C23.7019 26.5014 26.4898 26.1647 27.2136 26.3855C27.4759 26.4664 27.8214 26.9169 27.6443 27.1005H27.6465Z" fill="#FFFCF8"/>
<path d="M33.6505 48.2885C33.3444 48.341 33.0492 48.2404 32.9989 47.9037C33.106 47.4117 32.7933 45.0218 33.2744 44.9081C33.5346 44.8468 33.7292 45.5487 33.7554 45.7368C33.7992 46.067 33.7926 48.1705 33.6505 48.2885Z" fill="#FFFCF8"/>
<path d="M10.5075 48.2929C10.2605 48.3235 9.85156 48.3454 9.85156 48.0196V45.1792C9.85156 44.8578 10.5075 44.9671 10.5075 45.1792V48.2929Z" fill="#FFFCF8"/>
<path d="M11.5977 48.3476C11.5867 48.387 11.3615 48.6013 11.309 48.61C10.758 48.7128 10.6946 46.4212 11.0467 46.1567C11.2828 45.9774 11.5977 46.3338 11.5977 46.4912C11.5977 46.911 11.6829 48.0481 11.5977 48.3476Z" fill="#FFFCF8"/>
<path d="M32.0172 46.27C32.0521 46.1498 32.2577 46.0689 32.3933 46.1126C32.7475 46.2263 32.754 48.1046 32.6163 48.3976C32.4239 48.8109 32.0215 48.4982 31.9494 48.1811C31.9122 48.0127 32.0172 47.945 32.0172 47.9078C32.0172 47.5295 31.9406 46.539 32.0172 46.27Z" fill="#FFFCF8"/>
<path d="M12.472 48.8377C12.4567 48.853 12.179 48.8487 12.1069 48.8202C11.7417 48.6803 11.7723 47.6941 11.8117 47.3574C11.8926 46.6533 12.472 47.1344 12.472 47.2546C12.472 47.4842 12.5289 48.7831 12.472 48.8377Z" fill="#FFFCF8"/>
<path d="M31.6927 48.8373C30.9077 49.0735 30.9733 48.1376 31.0324 47.5735C31.1242 46.6989 31.6927 47.0509 31.6927 47.2521V48.8352V48.8373Z" fill="#FFFCF8"/>
<path d="M92.6004 20.1168C94.5169 19.0818 99.0721 14.9987 101.142 16.8242C102.604 18.1094 101.489 19.9747 100.551 21.1177C100.124 21.6409 97.3831 23.7337 97.7072 24.092C100.517 24.6948 104.531 26.6624 103.121 30.2224C101.335 34.7434 93.8743 29.5741 91.3152 28.0784C89.7741 29.9892 90.6442 35.113 87.596 35.4543C82.7963 35.9888 85.1393 28.1069 85.6852 25.5705C86.1288 23.529 87.7098 16.2441 89.4727 15.4366C92.2763 14.157 92.9189 18.1776 92.5948 20.1168H92.6004Z" fill="#FFFCF8"/>
<path d="M113.889 20.4012C106.525 23.438 112.075 23.8247 115.504 25.7469C118.757 27.5723 121.134 30.7172 118.558 34.3056C116.255 37.5129 107.099 39.7763 107.645 33.6174C107.833 31.5076 109.3 30.6148 111.273 30.4214C111.478 30.4044 114.276 30.8707 113.895 29.9267C113.292 28.431 104.512 27.0321 104.87 22.3348C105.251 17.3474 114.97 12.2122 119.275 14.6063C121.544 15.8688 121.493 18.7975 120.014 20.6969C118.285 22.9205 113.776 24.6436 113.901 20.4069L113.889 20.4012Z" fill="#FFFCF8"/>
<path d="M133.976 17.0519C138.883 15.9486 138.19 23.188 137.558 26.0371C134.874 38.1614 120.589 37.7634 121.265 24.5073C121.402 21.7833 122.693 17.0235 126.224 17.5808C129.329 18.0698 126.907 23.2449 126.702 25.1215C126.566 26.3385 126.395 29.5288 127.965 29.7847C130.319 30.1657 131.871 26.4295 132.065 24.5244C132.269 22.4714 131.217 17.6774 133.976 17.0576V17.0519Z" fill="#FFFCF8"/>
<path d="M80.6777 28.9315C80.399 29.2614 82.3269 34.3738 78.8522 34.0326C76.8106 33.8336 76.8163 30.3589 76.1396 29.904C75.6619 29.5855 71.8517 29.6708 71.3683 30.1314C70.4016 31.0641 69.9807 34.7378 68.0358 34.9141C64.22 35.2553 66.5402 31.0584 66.1706 30.6433C65.9829 30.4328 64.4531 30.7911 64.4531 29.3524C64.4531 27.5041 66.944 28.1183 67.8084 27.4245C68.4965 26.8729 70.9191 21.5784 72.028 20.1397C73.336 18.445 74.8657 16.6024 77.1803 18.064C79.4948 19.5255 78.9716 24.382 79.9498 25.5194C80.564 26.2359 84.1694 25.2749 83.8055 27.6349C83.595 28.9713 80.945 28.6187 80.6777 28.9315ZM75.2752 26.6511L74.5643 24.9507L73.2848 26.9354L75.2752 26.6511Z" fill="#FFFCF8"/>
<path d="M57.5892 35.9495C56.4575 37.0982 53.688 36.5864 53.0568 35.1021C52.653 34.1638 52.7668 30.8142 52.8464 29.6371C53.017 27.0552 53.8188 24.3369 53.9553 21.721C53.6084 20.6007 49.7357 22.3522 50.0143 19.1448C50.1053 18.1041 51.0266 17.6947 51.9194 17.3478C54.0349 16.5232 64.1689 14.1802 63.9073 18.2463C63.7594 20.5211 60.3473 19.9638 59.9891 21.1637C59.6422 24.0071 59.3862 34.1069 57.5835 35.9438L57.5892 35.9495Z" fill="#FFFCF8"/>
<path d="M52.4032 50.9757C52.3171 50.9293 51.4363 49.4923 51.4363 49.287C51.4098 48.1082 51.582 45.4991 51.7277 44.2805C51.8469 43.2673 52.423 40.6383 53.5091 40.4396C54.317 40.2939 56.8202 40.3469 57.5619 40.6846C60.0188 41.8104 56.9792 44.0223 56.9858 44.2474C56.9924 44.5587 61.4161 46.7043 57.8864 49.1214C57.3964 49.4592 52.6614 51.128 52.4098 50.9823L52.4032 50.9757ZM54.0058 47.7109C56.5885 47.6579 56.562 45.6514 54.0058 45.7242V47.7109Z" fill="#FFFCF8"/>
<path d="M75.8287 42.4198C76.3452 42.8966 78.5902 40.2013 79.6431 41.0622C81.0405 42.2012 78.8286 43.3469 78.1465 44.2343C78.1465 44.6912 81.2457 45.3203 80.7425 47.1415C80.014 49.7507 75.1863 46.0289 74.8354 46.3865C75.0738 49.8301 71.7295 51.691 72.2262 46.9163C72.3189 46.009 73.544 41.2542 74.0076 40.7576C75.4512 39.2212 75.7161 42.3072 75.8353 42.4131L75.8287 42.4198Z" fill="#FFFCF8"/>
<path d="M105.634 43.4589C105.436 43.7834 105.654 44.6179 105.588 45.0682C106.482 44.8033 109.396 44.6708 108.886 46.2204C108.535 47.28 105.389 46.9224 105.25 47.0549C105.038 47.2602 105.813 50.5713 104.091 50.611C102.449 50.366 102.681 43.194 103.31 41.9689C104.33 39.9955 110.654 39.0154 109.839 41.8564C109.416 43.3265 105.939 42.9556 105.628 43.4589H105.634Z" fill="#FFFCF8"/>
<path d="M113.197 42.7504C113.124 42.8298 113.236 43.4722 113.197 43.7371C117.057 43.3464 116.309 46.6509 112.872 45.3927C112.925 45.7569 112.64 46.3132 113.091 46.3794C114.289 46.5582 116.958 46.4655 116.375 48.3727C115.746 50.4389 111.084 49.0416 110.627 47.4721C110.316 46.4125 110.965 41.512 111.627 40.8299C112.422 40.0154 117.766 40.1081 116.355 42.4126C115.62 43.6179 113.349 42.5848 113.21 42.7371L113.197 42.7504Z" fill="#FFFCF8"/>
<path d="M100.661 45.3598C100.933 45.5784 102.224 45.1082 102.608 45.8962C102.992 46.6644 101.032 46.6313 100.953 46.7174C100.833 46.8498 101.774 50.4391 99.7672 48.7306C99.0719 48.1412 99.648 47.0949 98.1447 47.0088C95.9527 46.8896 96.4097 49.2272 95.019 49.5584C93.4893 49.3398 94.4164 48.2273 94.3634 47.5783C94.3502 47.3995 93.2641 47.3001 93.6813 46.3863C96.0786 46.9624 96.6878 40.8699 99.0785 41.4659C100.363 41.7838 100.363 45.1148 100.668 45.3598H100.661Z" fill="#FFFCF8"/>
<path d="M87.8489 42.5386C89.0144 41.3069 91.9083 40.3135 92.5639 42.4128C93.4447 45.2273 88.8886 42.4923 89.3654 45.5584C89.6435 47.3464 92.9083 45.4061 93.2195 47.3994C92.8951 48.7504 90.3786 48.8696 89.2395 48.6908C86.3456 48.2272 86.0211 44.479 87.8489 42.5386Z" fill="#FFFCF8"/>
<path d="M68.8019 42.1479C72.0667 41.8565 72.2588 47.0948 69.1264 48.4523C65.2921 50.1212 64.6564 42.5122 68.8019 42.1479ZM69.1198 45.9624C69.5171 45.4259 69.7224 43.8499 68.7225 44.075C67.5636 44.83 68.1066 47.3398 69.1198 45.9624Z" fill="#FFFCF8"/>
<path d="M62.5168 42.1479C65.7816 41.8565 65.9736 47.0948 62.8413 48.4523C59.007 50.1212 58.3712 42.5122 62.5168 42.1479ZM62.8346 45.9624C63.232 45.4259 63.4373 43.8499 62.4373 44.075C61.2784 44.83 61.8214 47.3398 62.8346 45.9624Z" fill="#FFFCF8"/>
</svg>
